<?xml version="1.0" encoding="utf-8"?>
<!-- Generator: Adobe Illustrator 16.0.0, SVG Export Plug-In . SVG Version: 6.00 Build 0)  -->
<!DOCTYPE svg PUBLIC "-//W3C//DTD SVG 1.1//EN" "http://www.w3.org/Graphics/SVG/1.1/DTD/svg11.dtd">
<svg version="1.1" id="图层_1" xmlns="http://www.w3.org/2000/svg" xmlns:xlink="http://www.w3.org/1999/xlink" x="0px" y="0px"
	 width="271.527px" height="82.44px" viewBox="0 0 271.527 82.44" enable-background="new 0 0 271.527 82.44" xml:space="preserve">
<g>
	<path fill="#231815" d="M271.2,29.722c-0.751,1.792-21.653,49.073-21.653,49.073s-0.533,1.373-1.637,0.647
		c-1.704-1.12-7.99-5.949-7.99-5.949s-1.046-0.61-0.289-1.947l10.327-23.833c-6.396,9.019-14.569,20.001-14.569,20.001
		c-2.14,2.518-3.619,1.668-4.595,1.165c0,0-7.821-5.18-8.09-9.899l-17.109,22.592c0,0-0.954,1.301-1.937,0.607
		c-0.982-0.694-7.706-5.503-7.706-5.503s-4.176-2.43-1.008-8.185c0,0,11.273-22.319,17.734-34.728
		c0.236-0.457,0.032-0.322-0.155-0.105c-3.027,3.494-6.956,7.251-10.165,11.114c-13.405,16.137-21.268,27.507-21.268,27.507
		c-0.48,0.431-1.059,0.426-1.584,0.033l-8.296-6.192c0,0-1.316-0.565-0.194-2.326c0,0,9.357-17.764,18.106-34.373
		c-11.725,16.401-25.053,34.565-26.904,36.904c-3.7,4.682-6.01,6.289-9.37,3.571l-10.68-7.937c0,0-1.865-1.684-2.404-4.503
		c-1.896-9.942,0.439-19.893,4.742-28.645c-6.622,2.125-9.034,3.127-17.175,7.545l1.522,1.226c0,0,4.614,3.602,2.165,10.095
		c-3.051,8.092-17.058,26.75-24.394,24.852c-0.099-0.025-11.113-8.109-11.113-8.109c0-0.082-1.828-3.068-0.223-9.666
		c-7.084,7.547-18.053,16.971-18.217,17.06c-0.241,0.181-2.332,1.66-4.446,0.065c-2.248-1.697-9.589-7.175-9.589-7.175
		c-0.359-0.46-1.365-2.825-0.932-7.057L43.946,77.943c0,0-0.843,1.336-1.984,0.522c-2.187-1.561-10.292-7.696-10.292-7.696
		s-0.096-0.05-0.217-0.176l-0.294-0.205c-3.611-4.323,16.455-36.542,28.515-55c-4.605,4.528-10.16,10.23-15.909,16.537
		c-8.56,9.393-19.273,22.037-26.65,33.832c-2.674,5.171-4.411,8.529-4.411,8.529s-0.81,1.764-2.204,0.723
		c-2.153-1.607-9.605-7.179-9.605-7.179s-1.33-0.885-0.228-2.584L30.353,7.221l2.31-4.403c0.523-1.174,1.616-2.641,3.285-1.333
		c2.323,1.821,8.878,6.84,8.878,6.84s1.583,0.871,0.453,3.169c-0.578,1.176-9.006,17.195-17.212,33.075
		c4.443-5.472,8.971-10.64,13.021-15.083C53.219,16.174,63.731,6.788,67.207,4.081c1.174-1.469,2.833-0.51,2.833-0.51L78.01,9.52
		c0.565,0.422,1.811,1.616,0.482,3.679c-6.316,9.806-30.008,44.056-34.798,59.487l20.318-22.571
		c0.564-1.462,1.271-3.032,2.152-4.709c5.659-10.777,15.532-18.357,18.54-20.637c1.017-0.771,1.781-0.025,1.781-0.025l8.528,6.349
		c-0.004,0.003-0.009,0.006-0.012,0.009l4.384,3.272c2.542,2.583-12.235,24.524-23.193,17.871
		c-3.445,6.736-3.925,13.079-2.902,15.783c0.588,1.292,2.048,0.546,3.215-0.353c2.257-1.947,17.597-16.749,23.689-24.344
		c5.692-9.5,13.898-16.152,16.62-18.207c0.956-0.722,1.56-0.192,1.56-0.192l7.837,5.849c0,0,0.864,0.645-0.043,1.325
		c-0.761,0.571-1.401,1.046-2.4,1.872c3.95-1.977,15.095-7.186,22.924-9.663c0.102-0.032,0.208-0.065,0.311-0.098
		c6.231-10.458,14.951-18.658,21.596-22.17c2.753-1.454,5.109-1.222,6.708-0.166c1.81,1.196,10.909,8.313,14.7,11.192l1.031,0.773
		c0.499,0.373,0.601,1.085,0.228,1.584l-1.346,1.799c-0.373,0.498-1.087,0.601-1.585,0.228l-2.464-1.847
		c-2.6-1.725-3.794-1.593-3.794-1.593c-8.297-0.237-31.018,21.615-30.115,44.352c0.565,14.221,9.28,2.11,9.28,2.11
		s28.03-35.921,39.024-52.213c2.194-4.167,3.618-6.87,3.737-7.097c0.367-0.704,1.535-1.442,2.911-0.313l7.021,5.3
		c0,0,1.508,0.829,0.433,3.017c-0.663,1.349-13.293,25.379-22.882,43.612c2.441-3.303,5.17-6.818,8.097-10.341
		c6.336-7.626,12.333-14.588,14.988-17.149c1.579-1.523,3.346-1.089,4.545-0.462c0.177,0.077,0.36,0.182,0.548,0.32
		c0.253,0.164,0.906,0.658,0.906,0.658c0.1-0.09,6.299,4.582,6.299,4.582s1.521,0.802,0.485,3.009
		c-0.725,1.544-19.243,35.818-22.221,42.611c-0.192,0.438,0.09,0.054,0.09,0.054l18.298-24.337c0.55-2.003,1.398-4.263,2.656-6.794
		c6.068-12.228,16.113-18.961,19.641-21.135c0.834-0.513,1.939-0.395,2.673,0.217l7.659,5.545c0.613,0.407-0.379,0.788-0.379,0.788
		c-14.796,6.477-23.652,28.75-23.351,32.516c0.09,1.115,0.397,1.779,2.05-0.091c9.07-12.044,15.502-21.76,19.475-28.103
		c3.248-5.187,7.406-12.416,7.408-12.42c0,0,0.506-0.884,1.674-0.113c1.869,1.233,7.688,5.203,7.688,5.203
		S271.952,27.93,271.2,29.722z M77.469,49.934c5.749-0.793,12.065-9.54,14.491-15.346c0.48-1.151,0.498-1.443,0.373-1.441
		C88.396,36.341,82.014,42.251,77.469,49.934z M121.916,35.755c0.081-0.206-4.784,3.129-13.283,16.218
		c-4.951,7.625-5.276,12.602-5.155,13.762c0.149,1.422,1.296,1.977,1.986,1.782c3.382-0.954,15.198-16.417,17.856-23.739
		C125.986,36.436,122.553,36.037,121.916,35.755z"/>
	<path fill="#231815" d="M268.369,69.243c-2.263,2.045-5.382,1.922-6.967-0.274c-1.585-2.195-1.034-5.633,1.227-7.677
		c2.263-2.045,5.381-1.923,6.966,0.273S270.63,67.198,268.369,69.243z"/>
</g>
</svg>
